<svg xmlns="http://www.w3.org/2000/svg" viewBox="480 440 1100 1100" fill="none">
    <polygon fill="#3B5B90" points="1034,456 1034,1519 614.7,1286.7 539.2,632.5" />
    <polygon fill="#1A3A6D" points="1528.8,632.5 1453.3,1286.7 1034,1519 1034,456" />
    <path
        fill="#FFFFFF"
        d="M1159.6,835.6H908.4c-5.5,0-9.9-4.4-9.9-9.9V662.5c0-5.5,4.4-9.9,9.9-9.9h251.3c5.5,0,9.9,4.4,9.9,9.9v163.3
	C1169.5,831.2,1165.1,835.6,1159.6,835.6z"
    />
    <path
        fill="#FFFFFF"
        d="M931.3,1031.4H750.7c-5.5,0-9.9-4.4-9.9-9.9V906c0-5.5,4.4-9.9,9.9-9.9h180.6c5.5,0,9.9,4.4,9.9,9.9v115.6
	C941.2,1027,936.8,1031.4,931.3,1031.4z"
    />
    <path
        fill="#FFFFFF"
        d="M1317.3,1031.4h-180.6c-5.5,0-9.9-4.4-9.9-9.9V906c0-5.5,4.4-9.9,9.9-9.9h180.6c5.5,0,9.9,4.4,9.9,9.9v115.6
	C1327.2,1027,1322.7,1031.4,1317.3,1031.4z"
    />
    <path
        fill="#FFFFFF"
        d="M804.3,1191h-127c-5.5,0-9.9-4.4-9.9-9.9v-79.4c0-5.5,4.4-9.9,9.9-9.9h127c5.5,0,9.9,4.4,9.9,9.9v79.4
	C814.2,1186.6,809.8,1191,804.3,1191z"
    />
    <path
        fill="#FFFFFF"
        d="M999.5,1191h-127c-5.5,0-9.9-4.4-9.9-9.9v-79.4c0-5.5,4.4-9.9,9.9-9.9h127c5.5,0,9.9,4.4,9.9,9.9v79.4
	C1009.4,1186.6,1005,1191,999.5,1191z"
    />
    <path
        fill="#FFFFFF"
        d="M1196.6,1191h-127c-5.5,0-9.9-4.4-9.9-9.9v-79.4c0-5.5,4.4-9.9,9.9-9.9h127c5.5,0,9.9,4.4,9.9,9.9v79.4
	C1206.5,1186.6,1202.1,1191,1196.6,1191z"
    />
    <path
        fill="#FFFFFF"
        d="M1390.7,1191h-127c-5.5,0-9.9-4.4-9.9-9.9v-79.4c0-5.5,4.4-9.9,9.9-9.9h127c5.5,0,9.9,4.4,9.9,9.9v79.4
	C1400.6,1186.6,1396.1,1191,1390.7,1191z"
    />
</svg>
